<svg width="61" height="22" viewBox="0 0 61 22" fill="none" xmlns="http://www.w3.org/2000/svg">
<path d="M14.5241 21.2899C14.3797 21.2899 14.2366 21.2614 14.1032 21.2061C13.9697 21.1508 13.8485 21.0698 13.7463 20.9677C13.6442 20.8655 13.5631 20.7443 13.5079 20.6108C13.4526 20.4773 13.4241 20.3343 13.4241 20.1899V13.5099C13.4241 13.2181 13.54 12.9383 13.7463 12.732C13.9526 12.5257 14.2324 12.4099 14.5241 12.4099H20.9411C21.0961 12.4087 21.2495 12.4409 21.391 12.5042C21.5325 12.5675 21.6587 12.6605 21.7611 12.7769L22.9211 14.0649L24.1291 12.7649C24.2326 12.6536 24.358 12.5649 24.4974 12.5045C24.6368 12.4441 24.7872 12.4132 24.9391 12.4139H30.0391C30.902 12.3724 31.7581 12.5852 32.5011 13.0259C32.5906 12.8435 32.7292 12.6896 32.9012 12.5815C33.0732 12.4734 33.272 12.4154 33.4751 12.4139H37.1611C37.9989 12.353 38.8385 12.5057 39.6011 12.8579C39.6811 12.9049 39.7361 12.9669 39.8121 13.0209C39.9023 12.8394 40.0412 12.6866 40.2131 12.5794C40.3851 12.4722 40.5835 12.4149 40.7861 12.4139H46.1131C46.3085 12.4155 46.4998 12.4699 46.6669 12.5713C46.8339 12.6727 46.9705 12.8173 47.0621 12.9899C47.6875 12.5894 48.4199 12.3885 49.1621 12.4139H52.3621C52.5888 12.4143 52.8096 12.4855 52.9939 12.6174C53.1781 12.7493 53.3167 12.9355 53.3901 13.1499C54.047 12.6428 54.8609 12.3824 55.6901 12.4139H58.8901C59.0346 12.4139 59.1776 12.4423 59.3111 12.4976C59.4445 12.5529 59.5658 12.6339 59.6679 12.736C59.7701 12.8382 59.8511 12.9594 59.9064 13.0929C59.9617 13.2264 59.9901 13.3694 59.9901 13.5139V14.9359C59.9908 15.1197 59.9454 15.3008 59.858 15.4625C59.7707 15.6243 59.6442 15.7616 59.4901 15.8619C59.5024 15.8719 59.514 15.8826 59.5251 15.8939C59.8001 16.1849 60.0129 16.5289 60.1505 16.9049C60.288 17.281 60.3475 17.6811 60.3251 18.0809C60.3251 20.0899 58.9781 21.2899 56.7171 21.2899H53.5901C53.3741 21.29 53.1629 21.2265 52.9828 21.1073C52.8026 20.9882 52.6616 20.8186 52.5771 20.6199C51.8665 21.0879 51.0274 21.3222 50.1771 21.2899H47.0711C46.9044 21.2877 46.7405 21.247 46.5921 21.1709C46.4436 21.2465 46.2798 21.2872 46.1131 21.2899H40.7871C40.6176 21.2865 40.4512 21.2437 40.3011 21.1649C40.151 21.2455 39.9835 21.2884 39.8131 21.2899H38.2131C37.9214 21.2899 37.6416 21.174 37.4353 20.9677C37.229 20.7614 37.1131 20.4816 37.1131 20.1899V19.2149C37.1131 19.1209 37.1131 18.9779 37.1131 18.8579C37.0381 18.8579 36.9351 18.8479 36.7881 18.8479H36.1881V20.1869C36.1881 20.4786 36.0722 20.7584 35.8659 20.9647C35.6597 21.171 35.3799 21.2869 35.0881 21.2869H33.4881C33.1964 21.2869 32.9166 21.171 32.7103 20.9647C32.504 20.7584 32.3881 20.4786 32.3881 20.1869V18.4869C31.645 18.8894 30.8065 19.0826 29.9621 19.0459H29.0751V20.1859C29.0751 20.4776 28.9592 20.7574 28.7529 20.9637C28.5467 21.17 28.2669 21.2859 27.9751 21.2859H24.8751C24.7155 21.2892 24.557 21.2577 24.4107 21.1937C24.2645 21.1296 24.1339 21.0345 24.0281 20.9149L22.8721 19.6149L21.6541 20.9349C21.5511 21.0467 21.4261 21.136 21.2868 21.1971C21.1476 21.2582 20.9972 21.2898 20.8451 21.2899H14.5241ZM40.7861 20.1899H46.1131V18.8019L42.3761 18.7939V17.4689H46.0211V16.1049H42.3741V14.8889H46.1131V13.5089H40.7861V20.1899ZM36.7861 17.7529C37.3711 17.7529 37.7251 17.8089 37.9541 18.0469C38.2541 18.3579 38.2141 18.9539 38.2141 19.3549V20.1909H39.8141V18.8629C39.8626 18.4387 39.7694 18.0105 39.5491 17.6449C39.349 17.3871 39.0789 17.1923 38.7711 17.0839C39.1161 16.9346 39.4083 16.6853 39.61 16.3681C39.8116 16.0509 39.9134 15.6805 39.9021 15.3049C39.9221 15.0052 39.8553 14.7061 39.7099 14.4433C39.5645 14.1806 39.3466 13.9652 39.0821 13.8229C38.4782 13.5603 37.8182 13.4528 37.1621 13.5099H33.4751V20.1869H35.0751V17.7489L36.7861 17.7529ZM24.8541 20.1839H27.9541V17.9439H29.9441C31.3441 17.9439 32.7231 17.5619 32.7231 15.7099C32.7231 13.8579 31.2991 13.5099 30.0331 13.5099H24.9331L22.9031 15.6999L20.9371 13.5099H14.5241V20.1879H20.8451L22.8881 17.9789L24.8541 20.1839ZM53.5931 20.1839H56.7011C58.3011 20.1919 59.2011 19.5209 59.2011 18.0839C59.2233 17.8276 59.1922 17.5694 59.1098 17.3257C59.0274 17.082 58.8954 16.858 58.7221 16.6679C58.2043 16.2647 57.5528 16.0728 56.8991 16.1309L56.0421 16.1059C55.832 16.1161 55.6216 16.0904 55.4201 16.0299C55.327 15.9915 55.2459 15.9287 55.1853 15.8482C55.1248 15.7676 55.0871 15.6723 55.0761 15.5721C55.0652 15.4719 55.0814 15.3707 55.1231 15.279C55.1648 15.1872 55.2305 15.1085 55.3131 15.0509C55.5091 14.9449 55.733 14.9023 55.9541 14.9289H58.8801V13.5089H55.6801C54.0051 13.5089 53.3991 14.5249 53.3991 15.4969C53.3991 17.6079 55.2681 17.5139 56.7591 17.5619C56.9605 17.5408 57.1626 17.5933 57.3281 17.7099C57.3909 17.7644 57.4408 17.8321 57.4744 17.9081C57.5079 17.9842 57.5242 18.0667 57.5221 18.1499C57.5228 18.2317 57.5065 18.3127 57.4743 18.3879C57.4421 18.4631 57.3948 18.5309 57.3351 18.5869C57.1474 18.7218 56.9155 18.7807 56.6861 18.7519H53.5861L53.5931 20.1839ZM47.0731 20.1839H50.1811C51.7811 20.1919 52.6811 19.5209 52.6811 18.0839C52.7039 17.8275 52.6731 17.5692 52.5907 17.3254C52.5082 17.0817 52.3759 16.8577 52.2021 16.6679C51.6853 16.2649 51.0349 16.073 50.3821 16.1309L49.5251 16.1059C49.315 16.1162 49.1046 16.0904 48.9031 16.0299C48.8097 15.9917 48.7283 15.9291 48.6676 15.8485C48.6069 15.768 48.569 15.6725 48.5581 15.5722C48.5471 15.4719 48.5634 15.3705 48.6053 15.2788C48.6472 15.187 48.7132 15.1083 48.7961 15.0509C48.9918 14.9452 49.2153 14.9025 49.4361 14.9289H52.3631V13.5089H49.1631C47.4881 13.5089 46.8821 14.5249 46.8821 15.4969C46.8821 17.6079 48.7521 17.5139 50.2421 17.5619C50.4434 17.5411 50.6454 17.5937 50.8111 17.7099C50.8739 17.7644 50.9238 17.8321 50.9574 17.9081C50.9909 17.9842 51.0072 18.0667 51.0051 18.1499C51.0058 18.2317 50.9895 18.3127 50.9573 18.3879C50.9251 18.4631 50.8778 18.5309 50.8181 18.5869C50.6299 18.7215 50.3978 18.7804 50.1681 18.7519H47.0721L47.0731 20.1839ZM23.9131 16.8589L26.3641 14.2279V19.5809L23.9131 16.8589ZM16.1131 18.7959V17.4669H19.6131V16.1039H16.1131V14.8909H20.1131L21.8581 16.8339L20.0351 18.7959H16.1131ZM27.9521 16.5889V14.8889H30.0321C30.6091 14.8889 31.0061 15.1229 31.0071 15.7099C31.0081 16.2969 30.6251 16.5899 30.0071 16.5899L27.9521 16.5889ZM35.0741 16.3889V14.8889H37.0391C37.2989 14.8653 37.5605 14.9069 37.8001 15.0099C37.9067 15.0681 37.9946 15.1554 38.0535 15.2616C38.1125 15.3678 38.1401 15.4886 38.1331 15.6099C38.1393 15.7364 38.112 15.8624 38.0541 15.9751C37.9962 16.0877 37.9096 16.1832 37.8031 16.2519C37.556 16.3658 37.2832 16.4128 37.0121 16.3879L35.0741 16.3889ZM13.6671 9.79585C13.4536 9.79616 13.2445 9.7343 13.0655 9.61781C12.8865 9.50132 12.7453 9.33525 12.6591 9.13985L12.4501 8.66585V8.69185C12.4501 8.98359 12.3342 9.26338 12.1279 9.46967C11.9217 9.67596 11.6419 9.79185 11.3501 9.79185H8.10213C7.88416 9.79276 7.67085 9.7289 7.48924 9.60836C7.30764 9.48783 7.16594 9.31606 7.08213 9.11485L6.75013 8.30885H4.90113L4.56513 9.11485C4.48195 9.31564 4.34115 9.48729 4.1605 9.60814C3.97986 9.72898 3.76746 9.79361 3.55013 9.79385H1.81313C1.63101 9.79389 1.45174 9.74872 1.29139 9.66238C1.13104 9.57604 0.994641 9.45124 0.894424 9.29918C0.794208 9.14712 0.733312 8.97256 0.717203 8.79116C0.701094 8.60976 0.730274 8.42719 0.802127 8.25985L3.65913 1.58285C3.74393 1.38428 3.88529 1.21505 4.0656 1.09626C4.24592 0.977478 4.4572 0.914387 4.67313 0.914854H7.04113C7.25694 0.914303 7.46814 0.977247 7.64844 1.09585C7.82874 1.21445 7.97018 1.38347 8.05513 1.58185L8.65513 2.98185V2.01485C8.65513 1.87032 8.68361 1.72719 8.73896 1.59367C8.7943 1.46015 8.87541 1.33884 8.97766 1.23668C9.07991 1.13452 9.20129 1.05352 9.33487 0.998299C9.46844 0.943078 9.61159 0.914722 9.75613 0.914854H12.3611C12.5715 0.915641 12.7773 0.976351 12.9544 1.08987C13.1315 1.2034 13.2726 1.36504 13.3611 1.55585L14.4051 3.82185L15.3541 1.58885C15.4379 1.38931 15.5788 1.21893 15.759 1.09904C15.9391 0.979152 16.1507 0.915082 16.3671 0.914854H19.0271C19.2409 0.921201 19.4479 0.990803 19.6221 1.11485C19.7951 0.991281 20.0007 0.921688 20.2131 0.914854H25.5431C25.7393 0.91954 25.9303 0.978374 26.0951 1.08485C26.2614 0.978381 26.4537 0.91958 26.6511 0.914854H30.3211C31.1765 0.839983 32.036 1.00116 32.8061 1.38085C32.8757 1.42863 32.9425 1.48038 33.0061 1.53585C33.0954 1.35131 33.2344 1.19537 33.4076 1.08565C33.5808 0.975921 33.7811 0.916765 33.9861 0.914854H35.6131C35.8741 0.916886 36.1256 1.01263 36.3218 1.18463C36.518 1.35664 36.6459 1.59343 36.6821 1.85185C37.5317 1.17897 38.6006 0.845103 39.6821 0.914854H41.2231C41.4614 0.914349 41.6933 0.991201 41.8841 1.13385C42.0733 0.991709 42.3035 0.914854 42.5401 0.914854H44.9311C45.1468 0.914863 45.3578 0.978286 45.5377 1.09723C45.7176 1.21618 45.8586 1.3854 45.9431 1.58385L46.5291 2.95485V2.01485C46.5291 1.72312 46.645 1.44333 46.8513 1.23704C47.0576 1.03075 47.3374 0.914854 47.6291 0.914854H50.0631C50.2527 0.915455 50.4389 0.964682 50.604 1.05783C50.7691 1.15097 50.9076 1.28492 51.0061 1.44685L51.7641 2.70485V2.01485C51.7641 1.72312 51.88 1.44333 52.0863 1.23704C52.2926 1.03075 52.5724 0.914854 52.8641 0.914854H54.4971C54.7889 0.914854 55.0687 1.03075 55.2749 1.23704C55.4812 1.44333 55.5971 1.72312 55.5971 2.01485V8.69385C55.5971 8.98559 55.4812 9.26538 55.2749 9.47167C55.0687 9.67796 54.7889 9.79385 54.4971 9.79385H52.2411C52.0512 9.79379 51.8645 9.7448 51.6989 9.65163C51.5334 9.55845 51.3947 9.42421 51.2961 9.26185L50.3131 7.63985V8.69385C50.3131 8.83831 50.2847 8.98135 50.2294 9.11481C50.1741 9.24826 50.0931 9.36953 49.9909 9.47167C49.8888 9.57382 49.7675 9.65484 49.6341 9.71012C49.5006 9.7654 49.3576 9.79385 49.2131 9.79385H45.9681C45.7503 9.7942 45.5372 9.72985 45.356 9.60897C45.1748 9.48809 45.0335 9.31612 44.9501 9.11485L44.6131 8.30685H42.7741L42.4491 9.10685C42.3676 9.30986 42.2274 9.48394 42.0464 9.60685C41.8654 9.72976 41.6519 9.79591 41.4331 9.79685H39.5631C38.5286 9.83213 37.512 9.51947 36.6761 8.90885C36.6297 9.15696 36.4985 9.38123 36.305 9.54323C36.1114 9.70523 35.8675 9.79489 35.6151 9.79685H33.9851C33.8102 9.79345 33.6386 9.74782 33.4851 9.66385C33.3336 9.74737 33.1641 9.793 32.9911 9.79685H31.3811C31.0904 9.79686 30.8115 9.68179 30.6054 9.4768C30.3993 9.2718 30.2827 8.99355 30.2811 8.70285L30.2751 7.86085V7.71385C30.2751 7.62385 30.2751 7.48985 30.2751 7.37685C30.2021 7.37685 30.1041 7.36785 29.9651 7.36785H29.3551V8.69485C29.3551 8.98659 29.2392 9.26638 29.0329 9.47267C28.8267 9.67896 28.5469 9.79485 28.2551 9.79485H26.6551C26.4584 9.78992 26.2668 9.73112 26.1011 9.62485C25.9363 9.73129 25.7453 9.79012 25.5491 9.79485H20.2131C19.9994 9.78839 19.7924 9.7188 19.6181 9.59485C19.4438 9.71853 19.2368 9.78809 19.0231 9.79485H17.3911C17.0994 9.79485 16.8196 9.67896 16.6133 9.47267C16.407 9.26638 16.2911 8.98659 16.2911 8.69485V8.66885L16.0801 9.14085C15.9941 9.33643 15.8529 9.50272 15.6739 9.61939C15.4949 9.73606 15.2858 9.79808 15.0721 9.79785L13.6671 9.79585ZM52.2401 8.69585H54.5001V2.01485H52.8671V6.66485L50.0631 2.01485H47.6311V8.33085L44.9311 2.01485H42.5401L40.2861 7.26485H39.5711C39.1696 7.29948 38.7705 7.17565 38.4591 6.91985C38.1266 6.46887 37.9701 5.91202 38.0191 5.35385C37.9791 4.81019 38.1423 4.27103 38.4771 3.84085C38.6402 3.68893 38.8345 3.57443 39.0465 3.50535C39.2584 3.43626 39.4828 3.41425 39.7041 3.44085H41.2131V2.01485H39.6731C39.2375 1.97373 38.798 2.02149 38.3813 2.15522C37.9647 2.28895 37.5795 2.50588 37.2491 2.79285C36.9416 3.15069 36.7078 3.56571 36.5611 4.01411C36.4144 4.46251 36.3576 4.93547 36.3941 5.40585C36.353 5.86681 36.4078 6.33129 36.5552 6.77001C36.7025 7.20872 36.9391 7.61215 37.2501 7.95485C37.9005 8.48089 38.7243 8.7442 39.5591 8.69285H41.4281L42.0281 7.20385H45.3451L45.9671 8.69285H49.2131V3.68185L52.2401 8.69585ZM33.9861 8.69585H35.6131V2.01485H33.9831L33.9861 8.69585ZM26.6481 8.69585H28.2481V6.26385H29.9581C30.1612 6.23259 30.3684 6.24166 30.568 6.29057C30.7676 6.33947 30.9555 6.42724 31.1211 6.54885C31.3494 6.94132 31.4379 7.3996 31.3721 7.84885L31.3801 8.69085H32.9901V7.38185C33.0419 6.95567 32.9485 6.52448 32.7251 6.15785C32.516 5.90405 32.2435 5.71014 31.9351 5.59585C32.2787 5.44496 32.5692 5.19471 32.7693 4.87731C32.9695 4.55991 33.07 4.18989 33.0581 3.81485C33.0796 3.51691 33.0149 3.21908 32.8718 2.95686C32.7287 2.69464 32.5133 2.47907 32.2511 2.33585C31.6468 2.05999 30.9801 1.94956 30.3191 2.01585H26.6491L26.6481 8.69585ZM20.2141 8.69585H25.5441V7.31485H21.8131V5.97785H25.4591V4.60985H21.8131V3.40985H25.5481V2.01485H20.2131L20.2141 8.69585ZM17.3891 8.69585H19.0251V2.01485H16.3651L14.4481 6.54485L12.3601 2.01485H9.75513V8.33785L7.03913 2.01485H4.67013L1.81313 8.69285H3.54713L4.16713 7.20385H7.48813L8.10213 8.69285H11.3501V3.45885L13.6681 8.69285H15.0681L17.3831 3.46385L17.3891 8.69585ZM39.2521 4.63185C39.1549 4.86027 39.1114 5.10798 39.1251 5.35585C39.1059 5.62156 39.1494 5.88805 39.2521 6.13385C39.3551 6.15723 39.4605 6.16798 39.5661 6.16585L40.2591 4.54985H39.7131C39.3371 4.54885 39.2981 4.58785 39.2521 4.63185ZM42.6041 5.81485L43.7041 3.15385L44.8071 5.81485H42.6041ZM4.73613 5.81485L5.82013 3.15185L6.91313 5.81485H4.73613ZM28.2461 4.89185V3.40785H30.2131C30.4711 3.38843 30.7301 3.42988 30.9691 3.52885C31.0771 3.58298 31.1666 3.66795 31.2262 3.77298C31.2859 3.87802 31.313 3.99839 31.3041 4.11885C31.3128 4.24455 31.2867 4.37021 31.2287 4.48205C31.1706 4.59389 31.0829 4.68758 30.9751 4.75285C30.7294 4.86918 30.4567 4.91653 30.1861 4.88985L28.2461 4.89185Z" fill="#727174"/>
</svg>
