<svg width="33" height="28" viewBox="0 0 33 28" fill="none" xmlns="http://www.w3.org/2000/svg">
<path d="M7.26818 26.133C7.25915 26.293 7.29797 26.452 7.37969 26.5899C7.4614 26.7278 7.58231 26.8382 7.72701 26.907C7.8717 26.9759 8.03363 27.0002 8.19215 26.9767C8.35068 26.9532 8.49862 26.8831 8.61713 26.7752C8.73564 26.6673 8.81935 26.5266 8.85759 26.371C8.89582 26.2153 8.88686 26.0518 8.83184 25.9013C8.77682 25.7508 8.67823 25.6201 8.54864 25.5258C8.41905 25.4315 8.26432 25.378 8.10418 25.372C7.89244 25.3622 7.68548 25.4368 7.52874 25.5795C7.372 25.7222 7.27828 25.9213 7.26818 26.133ZM9.42718 24.8V27.467H8.84718V27.14C8.74827 27.2677 8.6202 27.3698 8.47371 27.4378C8.32721 27.5059 8.16655 27.5378 8.00518 27.531C7.63387 27.531 7.27778 27.3835 7.01523 27.1209C6.75268 26.8584 6.60518 26.5023 6.60518 26.131C6.60518 25.7597 6.75268 25.4036 7.01523 25.141C7.27778 24.8785 7.63387 24.731 8.00518 24.731C8.16655 24.7241 8.32721 24.7561 8.47371 24.8241C8.6202 24.8921 8.74827 24.9943 8.84718 25.122V24.798L9.42718 24.8ZM29.0202 26.133C29.0109 26.2932 29.0497 26.4526 29.1314 26.5908C29.2131 26.729 29.3342 26.8397 29.4791 26.9088C29.624 26.9779 29.7862 27.0022 29.945 26.9787C30.1038 26.9553 30.252 26.885 30.3708 26.777C30.4895 26.6689 30.5733 26.5279 30.6116 26.372C30.6498 26.2161 30.6408 26.0523 30.5856 25.9016C30.5303 25.7508 30.4315 25.6199 30.3016 25.5256C30.1717 25.4313 30.0166 25.3778 29.8562 25.372C29.6444 25.3622 29.4375 25.4368 29.2807 25.5795C29.124 25.7222 29.0303 25.9213 29.0202 26.133ZM31.1802 23.733V27.47H30.6002V27.14C30.5013 27.2677 30.3732 27.3698 30.2267 27.4378C30.0802 27.5059 29.9195 27.5378 29.7582 27.531C29.3869 27.531 29.0308 27.3835 28.7682 27.1209C28.5057 26.8584 28.3582 26.5023 28.3582 26.131C28.3582 25.7597 28.5057 25.4036 28.7682 25.141C29.0308 24.8785 29.3869 24.731 29.7582 24.731C29.9195 24.7241 30.0802 24.7561 30.2267 24.8241C30.3732 24.8921 30.5013 24.9943 30.6002 25.122V23.728L31.1802 23.733ZM16.6242 25.251C16.4449 25.2449 16.2704 25.3092 16.1379 25.4301C16.0055 25.551 15.9255 25.7189 15.9152 25.898H17.2992C17.2952 25.7227 17.222 25.5562 17.0954 25.4349C16.9689 25.3136 16.7994 25.2475 16.6242 25.251ZM16.6352 24.731C16.8127 24.732 16.9881 24.7699 17.1502 24.8424C17.3123 24.9149 17.4575 25.0204 17.5766 25.1521C17.6957 25.2838 17.786 25.4388 17.8419 25.6074C17.8978 25.7759 17.918 25.9542 17.9012 26.131C17.9012 26.209 17.8952 26.282 17.8892 26.354H15.9052C15.9274 26.5455 16.0233 26.7209 16.1727 26.8428C16.3221 26.9647 16.5131 27.0236 16.7052 27.007C16.9876 27.0025 17.2606 26.9044 17.4812 26.728L17.7652 27.158C17.4591 27.4126 17.0701 27.5458 16.6722 27.532C16.3009 27.5371 15.9427 27.3946 15.6765 27.1357C15.4103 26.8768 15.2578 26.5228 15.2527 26.1515C15.2475 25.7802 15.39 25.422 15.6489 25.1558C15.9078 24.8896 16.2619 24.7371 16.6332 24.732L16.6352 24.731ZM23.6352 26.131C23.6262 26.291 23.665 26.45 23.7467 26.5879C23.8284 26.7258 23.9493 26.8362 24.094 26.905C24.2387 26.9739 24.4006 26.9982 24.5592 26.9747C24.7177 26.9512 24.8656 26.8811 24.9841 26.7732C25.1026 26.6653 25.1863 26.5246 25.2246 26.369C25.2628 26.2133 25.2539 26.0498 25.1988 25.8993C25.1438 25.7488 25.0452 25.6181 24.9156 25.5238C24.786 25.4295 24.6313 25.376 24.4712 25.37C24.2594 25.3602 24.0525 25.4348 23.8957 25.5775C23.739 25.7202 23.6453 25.9193 23.6352 26.131ZM25.7942 24.798V27.465H25.2142V27.14C25.1152 27.2676 24.9871 27.3697 24.8407 27.4377C24.6942 27.5057 24.5335 27.5377 24.3722 27.531C24.0009 27.531 23.6448 27.3835 23.3822 27.1209C23.1197 26.8584 22.9722 26.5023 22.9722 26.131C22.9722 25.7597 23.1197 25.4036 23.3822 25.141C23.6448 24.8785 24.0009 24.731 24.3722 24.731C24.5335 24.7242 24.6942 24.7562 24.8407 24.8242C24.9871 24.8922 25.1152 24.9943 25.2142 25.122V24.798H25.7942ZM20.3612 26.131C20.3535 25.9431 20.3852 25.7557 20.4543 25.5808C20.5234 25.4059 20.6283 25.2474 20.7624 25.1156C20.8964 24.9837 21.0566 24.8813 21.2326 24.8151C21.4085 24.7489 21.5964 24.7202 21.7842 24.731C22.1323 24.7139 22.4742 24.8273 22.7432 25.049L22.4652 25.518C22.2639 25.3645 22.0183 25.2803 21.7652 25.278C21.5458 25.2886 21.339 25.3832 21.1875 25.5422C21.036 25.7012 20.9515 25.9124 20.9515 26.132C20.9515 26.3516 21.036 26.5628 21.1875 26.7217C21.339 26.8807 21.5458 26.9753 21.7652 26.986C22.0183 26.9837 22.2639 26.8995 22.4652 26.746L22.7432 27.215C22.4742 27.4366 22.1323 27.55 21.7842 27.533C21.5964 27.5437 21.4085 27.5151 21.2326 27.4488C21.0566 27.3826 20.8964 27.2803 20.7624 27.1484C20.6283 27.0165 20.5234 26.858 20.4543 26.6831C20.3852 26.5083 20.3535 26.3208 20.3612 26.133V26.131ZM27.8362 24.731C27.977 24.7316 28.1167 24.7563 28.2492 24.804L28.0702 25.351C27.9548 25.3049 27.8314 25.2821 27.7072 25.284C27.3282 25.284 27.1382 25.529 27.1382 25.97V27.465H26.5572V24.798H27.1322V25.122C27.2035 24.9993 27.3067 24.8982 27.4308 24.8293C27.5549 24.7605 27.6953 24.7265 27.8372 24.731H27.8362ZM12.2942 25.012L12.0422 25.481C11.7891 25.3353 11.5031 25.2565 11.2112 25.252C10.8932 25.252 10.7032 25.369 10.7032 25.564C10.7032 25.743 10.9032 25.793 11.1552 25.826L11.4282 25.866C12.0082 25.95 12.3602 26.195 12.3602 26.666C12.3602 27.174 11.9142 27.536 11.1442 27.536C10.7324 27.5472 10.3279 27.4259 9.99018 27.19L10.2632 26.739C10.5192 26.9289 10.8316 27.0272 11.1502 27.018C11.5502 27.018 11.7582 26.901 11.7582 26.694C11.7582 26.543 11.6082 26.46 11.2902 26.415L11.0162 26.376C10.4162 26.292 10.0962 26.024 10.0962 25.589C10.0962 25.059 10.5312 24.735 11.2072 24.735C11.5885 24.7211 11.9657 24.8179 12.2942 25.012ZM19.7752 24.733C19.916 24.7336 20.0557 24.7583 20.1882 24.806L20.0092 25.353C19.8938 25.3069 19.7704 25.2841 19.6462 25.286C19.2672 25.286 19.0772 25.531 19.0772 25.972V27.467H18.4972V24.799H19.0722V25.123C19.1433 25.0003 19.2463 24.8992 19.3702 24.8303C19.4942 24.7615 19.6345 24.7275 19.7762 24.732L19.7752 24.733ZM14.8272 24.8V25.33H13.8792V26.53C13.8792 26.798 13.9742 26.976 14.2632 26.976C14.4442 26.9697 14.6207 26.9178 14.7762 26.825L14.9432 27.325C14.7257 27.4605 14.4744 27.5319 14.2182 27.531C13.5322 27.531 13.2922 27.162 13.2922 26.544V25.329H12.7512V24.799H13.2922V23.99H13.8782V24.799L14.8272 24.8ZM6.15718 27.467H5.57018V25.981C5.57018 25.529 5.38118 25.281 4.98518 25.281C4.8934 25.2767 4.8018 25.2926 4.71683 25.3275C4.63185 25.3625 4.55556 25.4156 4.49331 25.4832C4.43107 25.5507 4.38439 25.6311 4.35655 25.7187C4.32871 25.8063 4.32039 25.8988 4.33218 25.99V27.469H3.74618V25.981C3.74618 25.529 3.55118 25.281 3.16618 25.281C3.07416 25.2758 2.98215 25.2911 2.89675 25.3257C2.81134 25.3603 2.73467 25.4135 2.67224 25.4813C2.6098 25.549 2.56316 25.6298 2.53566 25.7178C2.50816 25.8057 2.50048 25.8987 2.51318 25.99V27.469H1.92817V24.799H2.50817V25.128C2.59213 24.9989 2.70839 24.8941 2.8454 24.824C2.98242 24.7538 3.13541 24.7207 3.28918 24.728C3.46508 24.7205 3.63975 24.7605 3.79479 24.8439C3.94984 24.9274 4.07952 25.051 4.17018 25.202C4.26973 25.0464 4.40916 24.9204 4.57396 24.837C4.73875 24.7537 4.92288 24.716 5.10718 24.728C5.24804 24.7197 5.38906 24.7415 5.52084 24.792C5.65261 24.8425 5.77211 24.9205 5.87137 25.0208C5.97063 25.1211 6.04737 25.2414 6.09648 25.3737C6.14559 25.506 6.16594 25.6472 6.15618 25.788L6.15718 27.467ZM17.3652 2.26697C17.2892 2.20297 17.2582 2.15597 17.2652 2.11397C18.789 1.10713 20.557 0.531865 22.3816 0.449302C24.2061 0.366739 26.0189 0.779959 27.6274 1.64506C29.2359 2.51016 30.58 3.79482 31.5169 5.36257C32.4538 6.93032 32.9486 8.72259 32.9486 10.549C32.9486 12.3753 32.4538 14.1676 31.5169 15.7354C30.58 17.3031 29.2359 18.5878 27.6274 19.4529C26.0189 20.318 24.2061 20.7312 22.3816 20.6486C20.557 20.5661 18.789 19.9908 17.2652 18.984C17.285 18.9443 17.3142 18.91 17.3502 18.884C17.7419 18.5614 18.1071 18.208 18.4422 17.827C19.3397 16.8159 20.0443 15.649 20.5212 14.384C20.839 13.5508 21.0507 12.681 21.1512 11.795C21.3662 9.8358 21.0512 7.85483 20.2392 6.05897C19.5809 4.59379 18.5975 3.2972 17.3652 2.26697ZM12.7472 10.535C12.7469 9.00345 13.094 7.49181 13.7622 6.11377C14.4304 4.73572 15.4025 3.52715 16.6052 2.57897C16.635 2.57884 16.6646 2.5846 16.6922 2.59593C16.7199 2.60725 16.745 2.62392 16.7662 2.64497C17.9207 3.58587 18.8555 4.7678 19.5052 6.10797C19.9216 6.96181 20.2129 7.87113 20.3702 8.80797C20.4808 9.43509 20.532 10.0712 20.5232 10.708C20.4968 12.1926 20.1476 13.6538 19.4996 14.9899C18.8517 16.326 17.9207 17.505 16.7712 18.445C16.7341 18.4805 16.6882 18.5053 16.6382 18.517C15.4262 17.5693 14.446 16.3579 13.772 14.9749C13.098 13.5919 12.7469 12.0735 12.7472 10.535ZM0.332176 9.80097C0.465894 8.04148 1.05698 6.34746 2.04689 4.88672C3.03679 3.42598 4.39116 2.24922 5.97583 1.47301C7.56049 0.696791 9.32046 0.348061 11.0814 0.461364C12.8423 0.574667 14.5431 1.14607 16.0152 2.11897C16.0212 2.16097 15.9822 2.20097 15.9152 2.25197C15.7332 2.40197 15.5552 2.55697 15.3882 2.72197C13.3317 4.71624 12.1363 7.43542 12.0572 10.299C12.0367 11.1444 12.1162 11.9892 12.2942 12.816C12.4601 13.6033 12.7122 14.3699 13.0462 15.102C13.7139 16.5687 14.7018 17.8671 15.9372 18.902C15.9664 18.9239 15.9906 18.9519 16.0082 18.984C14.483 19.99 12.714 20.5646 10.8888 20.647C9.06356 20.7294 7.25003 20.3165 5.6404 19.4519C4.03078 18.5874 2.68503 17.3035 1.74576 15.7363C0.806501 14.1692 0.30872 12.3771 0.305176 10.55C0.305176 10.318 0.313176 10.089 0.329176 9.86097C0.332176 9.83997 0.332176 9.81997 0.332176 9.80097Z" fill="#727174"/>
</svg>
