<svg width="61" height="18" viewBox="0 0 61 18" fill="none" xmlns="http://www.w3.org/2000/svg">
<path fill-rule="evenodd" clip-rule="evenodd" d="M47.1808 3.54095C49.3118 3.44095 51.6378 4.31595 51.1528 6.93195L49.7968 13.2319H46.6968L46.8908 12.1659C45.2438 13.9099 40.9808 13.813 41.6588 9.93795C42.1428 7.61295 44.4688 6.93795 47.9588 6.93795C48.1528 5.87195 47.4748 5.67795 46.3118 5.67795C45.288 5.78149 44.2806 6.00916 43.3118 6.35595L43.6028 4.12795C44.7699 3.79955 45.97 3.60265 47.1808 3.54095ZM47.3748 10.032C47.3748 9.74095 47.4748 9.35395 47.5688 9.45095H46.7938C46.1158 9.45095 45.2438 9.45095 44.8558 10.032C44.4678 10.807 45.0498 11.195 45.7278 11.195C46.5028 11.098 47.1808 10.807 47.3748 10.032ZM53.7688 0.63195H56.9668L54.3508 13.2319H51.2508L53.7688 0.63195ZM39.3328 0.63195C40.9798 0.63195 43.0148 2.76295 42.5328 5.57295C42.3348 6.67161 41.7441 7.66078 40.8707 8.35607C39.9973 9.05136 38.9009 9.40532 37.7858 9.35195H35.3608L34.4888 13.227H31.0978L33.6168 0.626953L39.3328 0.63195ZM39.2328 4.99195C39.2936 4.81633 39.3089 4.62816 39.2774 4.44501C39.2458 4.26187 39.1683 4.08971 39.0521 3.94461C38.936 3.79951 38.785 3.6862 38.6132 3.61526C38.4414 3.54433 38.2545 3.51807 38.0698 3.53895H36.4268L35.7488 6.44595H37.2988C37.7369 6.45263 38.1648 6.31367 38.5154 6.05087C38.8659 5.78808 39.1193 5.41632 39.2358 4.99395L39.2328 4.99195ZM16.9528 3.54095C19.0838 3.44095 21.5068 4.31595 21.0218 6.93195L19.6668 13.229H16.5668L16.7608 12.1629C15.1138 13.9069 10.9478 13.81 11.6258 9.93495C12.1098 7.60995 14.4358 6.93495 17.8258 6.93495C18.0198 5.86895 17.3418 5.67495 16.1788 5.67495C15.1531 5.76664 14.1442 5.99465 13.1788 6.35295L13.4698 4.12495C14.6024 3.78812 15.7722 3.59197 16.9528 3.54095ZM17.2438 10.032C17.2438 9.74095 17.3438 9.35395 17.4378 9.45095H16.6668C16.0858 9.45095 15.2138 9.45095 14.8258 10.032C14.3418 10.807 14.9258 11.195 15.6008 11.195C16.3668 11.098 17.0498 10.807 17.2438 10.032ZM22.2818 3.54095H25.3818L25.8658 8.96695L28.9668 3.54095H32.1668L24.8008 17.1049H21.3128L23.5408 13.0359L22.2818 3.54095ZM9.2988 0.633949C10.9458 0.633949 12.9808 2.76495 12.3988 5.57495C12.2008 6.67361 11.6101 7.66279 10.7367 8.35808C9.8633 9.05337 8.76687 9.40732 7.6518 9.35395H5.2298L4.3578 13.229H0.966797L3.4858 0.628952L9.2988 0.633949ZM9.1988 4.99395C9.25962 4.81833 9.27494 4.63016 9.24335 4.44701C9.21176 4.26386 9.13428 4.09171 9.01814 3.94661C8.90201 3.80151 8.751 3.6882 8.57921 3.61726C8.40743 3.54633 8.22047 3.52007 8.0358 3.54095H6.3928L5.7148 6.44795H7.2668C7.7048 6.45407 8.13245 6.31461 8.48265 6.05146C8.83285 5.78831 9.08579 5.41636 9.2018 4.99395H9.1988ZM57.6438 2.66895V1.31295H57.1598V1.11895H58.4188V1.31295H57.9348V2.66895H57.6438ZM58.6128 2.66895V1.11895H58.9038L59.2918 2.18495C59.3028 2.2589 59.3379 2.32712 59.3918 2.37895C59.3918 2.27895 59.3918 2.27895 59.4918 2.08795L59.8798 1.02195H60.1668V2.57195H59.9668V1.21595L59.4828 2.57195H59.1918L58.7078 1.21595V2.57195H58.6078L58.6128 2.66895Z" fill="#727174"/>
</svg>
