<svg width="62" height="62" viewBox="0 0 62 62" fill="none" xmlns="http://www.w3.org/2000/svg">
<path d="M62 0H0V62H62V0Z" fill="#F22735"/>
<path d="M27.1075 55.3741C23.6996 53.8759 20.4521 52.0371 17.4145 49.8853L16.6045 49.354C16.2446 49.0598 15.8134 48.8659 15.3545 48.792C15.0264 48.8227 14.7172 48.9594 14.4735 49.1812C13.3465 49.9972 12.1825 50.7002 10.8365 51.5132C10.2245 51.8822 9.59144 52.2641 8.91244 52.6861C8.74541 52.7898 8.55155 52.8423 8.35501 52.8365C8.15847 52.8306 7.968 52.7669 7.80746 52.6534C7.64642 52.5397 7.52255 52.3811 7.45138 52.1973C7.38022 52.0135 7.36496 51.8126 7.4075 51.6202C9.0375 44.2682 10.5495 37.4514 12.1175 30.3804C12.1469 30.2473 12.2032 30.1214 12.283 30.0108C12.3628 29.9002 12.4644 29.8072 12.5815 29.7373C12.6989 29.6679 12.8293 29.6232 12.9646 29.606C13.1 29.5888 13.2374 29.5993 13.3685 29.6372L34.1624 35.5772C34.3403 35.6278 34.5007 35.727 34.6256 35.8633C34.7506 35.9996 34.8354 36.1676 34.8705 36.3492C34.9053 36.5305 34.8893 36.7179 34.8242 36.8907C34.7591 37.0635 34.6474 37.215 34.5015 37.3282L28.4464 42.0284C30.3539 42.5474 32.3207 42.8161 34.2975 42.8282C38.0118 42.8064 41.65 41.7726 44.8205 39.8374C48.1976 37.7536 51.2661 35.2064 53.9365 32.271C54.0921 32.1085 54.298 32.0037 54.5208 31.9727C54.7436 31.9417 54.9704 31.9863 55.1645 32.1001C55.3587 32.2144 55.5086 32.3909 55.5899 32.6011C55.6713 32.8113 55.6792 33.0431 55.6125 33.2583C54.5509 36.9245 53.1589 40.4868 51.4535 43.9014C49.6904 47.3833 47.2225 50.4601 44.2065 52.937C41.311 55.3739 37.6529 56.7188 33.8685 56.7373C31.5488 56.7162 29.2542 56.2533 27.1075 55.3741ZM17.7014 47.6812L18.5145 48.2163C21.4405 50.2906 24.567 52.066 27.8474 53.5161C29.76 54.3024 31.8047 54.7179 33.8725 54.7403C37.2001 54.7164 40.4142 53.5269 42.9555 51.3785C45.7586 49.0725 48.0512 46.2083 49.6875 42.9683C50.7485 40.9044 51.6615 38.7676 52.4195 36.5743C50.4113 38.4716 48.2027 40.1446 45.8325 41.564C42.3565 43.6795 38.3696 44.8078 34.3004 44.8272C31.4683 44.7969 28.6602 44.3034 25.9875 43.3662C25.8162 43.3084 25.6639 43.2054 25.5466 43.0679C25.4293 42.9304 25.3515 42.7632 25.3214 42.585C25.2916 42.4067 25.3106 42.224 25.3764 42.0557C25.4423 41.8874 25.5525 41.7401 25.6955 41.6294L31.7185 36.9541L13.8405 31.8472C12.5185 37.8132 11.2295 43.6233 9.8685 49.7583C11.1495 48.9863 12.2595 48.3151 13.2995 47.5581C13.8825 47.0849 14.604 46.8148 15.3545 46.7891C16.2069 46.8502 17.0237 47.1605 17.7014 47.6812ZM47.4735 31.4024L45.2675 30.7671L26.7185 25.4263C26.5412 25.3752 26.3815 25.2759 26.257 25.1397C26.1326 25.0034 26.0483 24.8355 26.0135 24.6543C25.9786 24.473 25.9946 24.2856 26.0597 24.1128C26.1249 23.94 26.2366 23.7885 26.3825 23.6753L32.3105 19.0752C30.5418 18.3975 28.6615 18.0583 26.7675 18.0752C23.2766 18.145 19.8543 19.057 16.7915 20.7334C12.9539 22.822 9.56702 25.6484 6.82547 29.0503C6.6787 29.2272 6.47551 29.348 6.25003 29.3926C6.02455 29.4372 5.79057 29.4031 5.58749 29.2954C5.38424 29.1878 5.22429 29.0132 5.13467 28.8013C5.04505 28.5895 5.03123 28.3532 5.09549 28.1324C5.96018 25.0295 7.0717 22.0008 8.41946 19.0752C9.78919 16.1052 11.5678 13.3414 13.7035 10.8643C15.4168 8.8495 17.5147 7.19679 19.8745 6.00248C22.1136 4.8981 24.5778 4.32583 27.0745 4.33109C29.9625 4.37444 32.8089 5.0257 35.4285 6.24222C38.1466 7.55767 40.7352 9.12533 43.1605 10.9244C43.6005 11.2244 44.0525 11.5432 44.4965 11.8472C44.7745 12.0791 45.104 12.2411 45.4575 12.3194C45.6783 12.2915 45.8865 12.2007 46.0575 12.0581C47.3155 11.1861 48.6304 10.3742 50.0244 9.51517C50.6494 9.13217 51.2935 8.73314 51.9695 8.30814C52.1366 8.20275 52.3313 8.14917 52.5288 8.15433C52.7264 8.15949 52.918 8.22346 53.0795 8.33744C53.2409 8.45119 53.365 8.60979 53.4362 8.79398C53.5074 8.97817 53.5224 9.17937 53.4795 9.37211L48.7265 30.6582C48.6968 30.7916 48.6402 30.9173 48.56 31.0279C48.4799 31.1385 48.3779 31.2316 48.2605 31.3013C48.1059 31.3922 47.9298 31.4404 47.7505 31.4405C47.6568 31.4408 47.5636 31.428 47.4735 31.4024ZM34.6955 17.9732C34.8429 18.052 34.9681 18.1664 35.0598 18.3062C35.1516 18.4459 35.2068 18.6069 35.2205 18.7735C35.235 18.9398 35.2076 19.1068 35.1409 19.2598C35.0742 19.4128 34.9702 19.5469 34.8385 19.6495L29.1645 24.0494L45.8205 28.8492L47.0065 29.1905L51.0065 11.2593C49.6615 12.0893 48.3894 12.8752 47.1964 13.7032C46.6958 14.0848 46.0886 14.301 45.4594 14.3213C44.6947 14.2672 43.965 13.9797 43.3685 13.4981C42.9195 13.1891 42.4635 12.8734 42.0225 12.5684C39.6977 10.8434 37.2185 9.337 34.6165 8.0684C32.2528 6.96723 29.6837 6.37542 27.0764 6.33207C24.8852 6.32731 22.7225 6.82866 20.7565 7.79642C18.6352 8.87435 16.7501 10.3642 15.2115 12.1792C13.197 14.5169 11.5201 17.1253 10.2295 19.9283C9.57346 21.3173 8.96645 22.7953 8.38345 24.4283C10.6068 22.2635 13.1243 20.4233 15.8615 18.9615C19.2112 17.1338 22.9532 16.1428 26.7685 16.0733C29.5273 16.0403 32.2511 16.6937 34.6955 17.9732Z" fill="white"/>
</svg>
