<svg width="62" height="62" viewBox="0 0 62 62" fill="none" xmlns="http://www.w3.org/2000/svg">
<path d="M62.0078 0H0.0078125V62H62.0078V0Z" fill="#F22735"/>
<path d="M43.3557 52.7002C42.8444 52.4832 42.39 52.151 42.0277 51.73C41.9182 51.5811 41.7646 51.4706 41.5886 51.4141C41.4127 51.3575 41.2234 51.3579 41.0477 51.415C40.5377 51.563 40.0317 51.7242 39.5217 51.8652C39.0117 52.0062 39.0127 51.9978 38.7357 51.4238L39.3957 51.2139C39.8957 51.0499 40.3957 50.8499 40.9117 50.7349C41.4697 50.6089 41.5487 50.2509 41.5877 49.7769C41.6117 48.9914 41.719 48.2111 41.9077 47.4482C42.112 46.8068 42.4432 46.2126 42.8816 45.7017C43.32 45.1908 43.8567 44.7734 44.4597 44.4741C44.6067 44.4142 44.7574 44.363 44.9107 44.3218C44.5367 46.1218 44.5527 47.905 43.5567 49.5C44.3117 48.9 45.1027 48.344 45.7997 47.689C45.8869 47.5432 45.9411 47.3799 45.9583 47.2109C45.9756 47.042 45.9556 46.8713 45.8997 46.7109C45.5511 45.6656 45.4753 44.5486 45.6798 43.4658C45.8842 42.383 46.3619 41.3702 47.0677 40.5239C47.2247 40.3538 47.3916 40.1932 47.5677 40.043C47.7107 41.943 48.1867 43.667 47.7677 45.436L47.8857 45.499C48.3532 44.8331 48.7839 44.1423 49.1757 43.4292C49.2055 43.2667 49.202 43.0995 49.1654 42.9385C49.1288 42.7774 49.0598 42.6258 48.9627 42.4922C48.3734 41.5423 48.0284 40.4609 47.9586 39.3452C47.8888 38.2295 48.0964 37.1141 48.5627 36.0981C48.627 35.9351 48.7276 35.7885 48.8567 35.6699C49.5727 37.3639 50.4667 38.983 50.4637 40.918C50.6837 40.283 50.8547 39.6251 51.1347 39.0181C51.3603 38.5939 51.4175 38.1003 51.295 37.6357C51.1724 37.1712 50.8792 36.77 50.4737 36.5122C49.4523 35.5246 48.854 34.1787 48.8047 32.7588C48.7633 32.0261 48.7589 31.2922 48.7917 30.5591L49.0527 30.4922C50.1277 31.9162 51.4097 33.2102 52.0047 34.9922C52.0477 34.0922 52.1047 33.1968 52.1247 32.2988C52.1234 32.1015 52.0615 31.9095 51.9473 31.7485C51.8332 31.5876 51.6724 31.4655 51.4867 31.3989C49.1597 30.2899 48.4427 28.2589 48.2287 25.9409C48.2424 25.8195 48.2689 25.6999 48.3077 25.584C49.6027 26.693 51.0757 27.4892 51.8277 29.0352L51.9707 28.9868C51.7857 28.0468 51.6257 27.0999 51.3917 26.1709C51.3314 26.062 51.2464 25.9687 51.1436 25.8984C51.0409 25.8281 50.9231 25.7829 50.7997 25.7661C48.7437 25.5851 47.6817 24.2512 46.8877 22.5942C46.7058 22.2241 46.564 21.8354 46.4647 21.4351C47.9405 21.8238 49.3352 22.4723 50.5837 23.3501C50.2799 22.5726 49.9327 21.8128 49.5437 21.0742C49.4267 20.8742 48.9017 20.787 48.5917 20.833C47.9796 20.9258 47.3543 20.8731 46.7664 20.6792C46.1785 20.4853 45.6445 20.1555 45.2077 19.7168C44.7405 19.2573 44.3415 18.7336 44.0227 18.1611C44.2227 18.1611 44.4227 18.1611 44.6287 18.1611C45.8902 18.0547 47.1582 18.2649 48.3177 18.7729C47.9371 18.1877 47.5224 17.6253 47.0757 17.0889C46.9407 16.9429 46.4697 16.9629 46.2237 17.0659C45.3904 17.3702 44.4806 17.3945 43.6324 17.1348C42.7841 16.8751 42.0438 16.3456 41.5237 15.627C41.499 15.5837 41.4801 15.5371 41.4677 15.4888C41.9727 15.0408 44.2037 14.8892 45.3817 15.2202C45.2024 14.9031 44.9565 14.6286 44.661 14.4155C44.3654 14.2025 44.0272 14.0557 43.6697 13.9858C42.9717 13.8596 42.3152 13.5647 41.7574 13.1265C41.1997 12.6883 40.7576 12.1204 40.4697 11.4722C40.2768 11.054 40.1066 10.6255 39.9597 10.189C40.0537 10.135 40.0877 10.097 40.1087 10.104C41.4179 10.363 42.6429 10.9415 43.6747 11.7881C43.9251 12.0046 44.1281 12.2706 44.2707 12.5693C44.4134 12.8681 44.4927 13.193 44.5037 13.5239C44.5111 13.6705 44.5719 13.8093 44.6747 13.9141C45.2747 14.4941 45.8857 15.0568 46.4847 15.6138C45.6694 13.9799 45.4312 12.1185 45.8087 10.332L45.9707 10.2471C46.3347 10.6561 46.7287 11.0471 47.0617 11.4751C47.9382 12.54 48.4338 13.8673 48.4697 15.2461C48.463 15.6973 48.351 16.1407 48.1427 16.541C48.0168 16.749 47.957 16.9902 47.9713 17.2329C47.9856 17.4756 48.0733 17.7081 48.2227 17.8999C48.6457 18.5099 49.0467 19.1339 49.5027 19.7559C49.0617 17.9794 49.3118 16.1019 50.2027 14.5029C50.3127 14.6029 50.4097 14.6471 50.4557 14.7241C51.3983 16.3356 51.8111 18.2024 51.6357 20.061C51.546 20.5562 51.3351 21.0214 51.0217 21.415C50.9049 21.5582 50.8244 21.7273 50.787 21.9082C50.7495 22.0891 50.7563 22.2764 50.8067 22.4541C51.0377 23.1891 51.3347 23.9048 51.6367 24.6318C51.555 23.6952 51.6788 22.7525 51.9993 21.8687C52.3199 20.9848 52.8296 20.1816 53.4927 19.5151C53.6554 19.9353 53.7753 20.3707 53.8507 20.8149C53.9421 22.0176 53.9671 23.2247 53.9257 24.4302C53.8923 24.8546 53.774 25.2681 53.5778 25.646C53.3816 26.0239 53.1116 26.3583 52.7837 26.6299C52.5943 26.7988 52.4541 27.0158 52.3779 27.2578C52.3017 27.4999 52.2923 27.7579 52.3507 28.0049C52.4507 28.7049 52.5037 29.4052 52.6067 30.1372C52.7762 29.1941 53.1365 28.2955 53.6656 27.4966C54.1947 26.6977 54.8815 26.0153 55.6837 25.4912C55.741 25.6944 55.7827 25.9013 55.8087 26.1108C55.8827 27.7689 55.5236 29.4179 54.7667 30.895C54.6226 31.2236 54.4099 31.5176 54.143 31.7573C53.876 31.9971 53.5609 32.1771 53.2187 32.2852C52.7837 32.4112 52.7407 32.7849 52.7087 33.1289C52.6187 34.0659 52.5597 35.0061 52.4907 35.9351C52.7767 35.5151 53.0567 35.0568 53.3837 34.6348C54.0942 33.7095 55.0526 33.0052 56.1477 32.603C56.3112 32.5615 56.479 32.5394 56.6477 32.5371V33.1431C56.1797 34.1981 55.7547 35.2738 55.2267 36.2998C54.971 36.7811 54.6092 37.1982 54.1687 37.519C53.7283 37.8265 53.2246 38.0316 52.6947 38.1191C52.5356 38.1237 52.381 38.1728 52.2487 38.2612C52.1164 38.3497 52.0117 38.4739 51.9467 38.6191C51.5097 39.7251 51.1097 40.843 50.6407 42.106C51.2345 41.3997 51.9852 40.8421 52.8328 40.4775C53.6805 40.1129 54.6016 39.9513 55.5227 40.0059C55.4066 40.4436 55.2328 40.864 55.0057 41.2559C54.3793 42.094 53.6763 42.8723 52.9057 43.5801C52.5264 43.9083 52.0684 44.1322 51.5765 44.23C51.0845 44.3278 50.5757 44.2963 50.0997 44.1382C49.9483 44.1326 49.7977 44.1615 49.6591 44.2227C49.5205 44.2838 49.3976 44.3756 49.2997 44.4912C48.7267 45.2012 48.2227 45.9658 47.6457 46.7788C48.4682 46.347 49.3824 46.1191 50.3113 46.1143C51.2402 46.1094 52.1567 46.3278 52.9837 46.751C52.7336 47.072 52.4588 47.3728 52.1617 47.6509C51.0555 48.6454 49.6192 49.1936 48.1317 49.189C47.6074 49.0818 47.0973 48.914 46.6117 48.689C46.3587 48.614 45.9997 48.4891 45.8317 48.6011C45.0947 49.0791 44.4107 49.6329 43.6377 50.2139C44.5437 50.0745 45.4695 50.1463 46.3431 50.4238C47.2167 50.7014 48.0143 51.1773 48.6737 51.814C48.471 52.0057 48.2488 52.1754 48.0107 52.3208C47.1185 52.7494 46.1443 52.9805 45.1547 52.998C44.5426 52.9998 43.9345 52.8992 43.3557 52.7002ZM13.3327 52.355C13.0852 52.2144 12.8509 52.0519 12.6327 51.8691C13.2667 51.2189 14.0425 50.7241 14.8996 50.4238C15.7566 50.1235 16.6716 50.0259 17.5727 50.1382C17.2657 49.9312 16.9527 49.7381 16.6557 49.5161C16.3059 49.2171 15.9386 48.9393 15.5557 48.6841C15.3437 48.5631 14.9237 48.4909 14.7807 48.6089C14.4018 48.9088 13.9549 49.111 13.4794 49.1968C13.0038 49.2826 12.5145 49.2496 12.0547 49.1011C10.6668 48.8382 9.41346 48.1008 8.50969 47.0151C8.45159 46.9248 8.39851 46.831 8.35069 46.7349C9.16651 46.3147 10.0722 46.0993 10.9898 46.1064C11.9074 46.1136 12.8095 46.3431 13.6187 46.7759C13.0267 45.9469 12.4877 45.154 11.9037 44.395C11.8068 44.2545 11.6632 44.1528 11.4985 44.1079C11.3338 44.0631 11.1585 44.0779 11.0037 44.1499C10.643 44.2694 10.2601 44.3069 9.88307 44.2593C9.50606 44.2117 9.14443 44.0804 8.82469 43.875C7.54844 43.1427 6.54606 42.014 5.96971 40.6602C5.89527 40.4465 5.83709 40.2273 5.7957 40.0049C6.70693 39.9542 7.61743 40.1163 8.4551 40.4785C9.29276 40.8408 10.0346 41.3931 10.6217 42.0918C10.1607 40.8458 9.76871 39.7419 9.33971 38.6509C9.29162 38.4857 9.18634 38.3432 9.04271 38.2485C8.89909 38.1538 8.72648 38.1129 8.55571 38.1338C8.27178 38.1429 7.9892 38.0909 7.72725 37.981C7.4653 37.871 7.23011 37.7061 7.03771 37.4971C5.77591 36.2777 4.93855 34.6857 4.6487 32.9551C4.63663 32.795 4.63663 32.6342 4.6487 32.4741C5.54747 32.7361 6.38056 33.1853 7.0931 33.7925C7.80564 34.3997 8.38147 35.1512 8.7827 35.9971C8.7117 35.0521 8.6467 34.141 8.5757 33.23C8.58402 32.9955 8.51416 32.7651 8.37712 32.5747C8.24009 32.3843 8.04367 32.2448 7.81871 32.1782C7.35357 31.9713 6.96327 31.6261 6.7007 31.1899C5.76394 29.6139 5.33259 27.7886 5.46471 25.96C5.48921 25.8013 5.52597 25.6451 5.57469 25.4922C6.37787 26.013 7.0676 26.6905 7.60253 27.4844C8.13745 28.2783 8.50655 29.1718 8.6877 30.1118C8.7747 29.2718 8.88771 28.4328 8.93071 27.5908C8.94003 27.3055 8.83572 27.0282 8.6407 26.8198C7.2407 25.5628 7.12968 23.9329 7.24568 22.2559C7.33363 21.4559 7.46721 20.6617 7.64571 19.877C7.66171 19.788 7.74571 19.7111 7.82671 19.5771C8.47622 20.2424 8.97595 21.0388 9.29244 21.9131C9.60892 22.7873 9.73483 23.7191 9.6617 24.646C9.9377 23.878 10.2617 23.122 10.4617 22.335C10.5307 22.064 10.3267 21.7141 10.2137 21.4131C9.93764 20.9211 9.73165 20.3932 9.6017 19.8442C9.49639 18.153 9.86155 16.4656 10.6567 14.9692C10.7387 14.8112 10.8567 14.6692 11.0197 14.4292C11.9347 16.0504 12.2097 17.9552 11.7907 19.769C12.2717 19.04 12.7787 18.3272 13.2167 17.5752C13.2776 17.4565 13.3106 17.3253 13.3132 17.1919C13.3158 17.0585 13.288 16.9262 13.2317 16.8052C12.9745 16.377 12.8178 15.8959 12.7734 15.3984C12.7291 14.9009 12.7982 14.4 12.9757 13.9331C13.3837 12.4591 14.2378 11.1476 15.4207 10.1782C15.8368 12.0032 15.6115 13.9159 14.7827 15.5942C15.3927 15.0262 16.0367 14.435 16.6697 13.833C16.7334 13.7563 16.7663 13.6587 16.7617 13.5591C16.7706 13.1767 16.8668 12.8013 17.0431 12.4619C17.2194 12.1225 17.471 11.8282 17.7787 11.6011C18.8517 10.8635 20.0458 10.32 21.3067 9.99512C21.1229 10.9315 20.7037 11.8056 20.0887 12.5352C19.3665 13.3395 18.396 13.8788 17.3317 14.0679C16.7426 14.3091 16.2187 14.6861 15.8027 15.168C17.1897 14.73 18.4827 15.1239 19.9027 15.3599C19.5895 15.8741 19.1651 16.3118 18.6607 16.6406C18.1563 16.9694 17.5846 17.1808 16.9877 17.2598C16.3959 17.3115 15.7996 17.2539 15.2287 17.0898C14.3837 16.8618 14.3067 16.8371 13.7857 17.5581C13.5497 17.8881 13.3247 18.2261 13.0947 18.5581C13.0487 18.6271 13.0107 18.701 12.8947 18.897C14.2947 18.065 15.7357 18.1521 17.1827 18.0601C17.1827 18.1681 17.2077 18.2469 17.1827 18.2949C16.8399 18.9752 16.3374 19.5623 15.7181 20.0059C15.0987 20.4494 14.3811 20.7362 13.6267 20.8418C13.2339 20.8614 12.8402 20.8406 12.4517 20.7798C12.259 20.7392 12.0581 20.7725 11.8888 20.873C11.7195 20.9736 11.5942 21.1346 11.5377 21.3232C11.2817 21.9972 10.9747 22.6518 10.7207 23.3428C11.8827 22.3068 13.3697 21.9689 14.7207 21.3569L14.8487 21.4668C14.6667 21.8868 14.5027 22.3171 14.2987 22.7251C13.9139 23.6759 13.2554 24.4908 12.4067 25.0669C11.9208 25.3429 11.3948 25.5411 10.8477 25.6548C10.0157 25.8288 9.87669 25.8911 9.71169 26.7031C9.553 27.4651 9.43418 28.2345 9.3557 29.0088C10.1667 27.4908 11.6397 26.6848 12.8757 25.6318L13.0427 25.688C12.9817 26.188 12.9557 26.699 12.8537 27.188C12.6127 28.6392 11.8398 29.9485 10.6857 30.8608C10.4189 31.0447 10.1354 31.2029 9.8387 31.333C9.60796 31.4229 9.41282 31.5856 9.28288 31.7964C9.15295 32.0072 9.0953 32.2545 9.1187 32.501C9.1697 33.323 9.20771 34.1458 9.30571 34.9888C9.82871 33.2048 11.1237 31.9248 12.1707 30.4888L12.3517 30.5059C12.4027 30.9359 12.4907 31.3659 12.4997 31.7979C12.559 33.1045 12.2287 34.3995 11.5507 35.5181C11.2071 36.0199 10.8123 36.4844 10.3727 36.9048C10.1455 37.0783 9.98157 37.322 9.90605 37.5977C9.83054 37.8733 9.84763 38.1661 9.9547 38.4312C10.2717 39.2372 10.5007 40.0752 10.8177 40.8892C10.7897 38.9822 11.6777 37.3591 12.3177 35.6641L12.4997 35.6362C12.7061 36.0951 12.8848 36.5656 13.0347 37.0459C13.3053 37.9448 13.3796 38.8916 13.2525 39.8218C13.1253 40.7519 12.7997 41.6437 12.2977 42.437C12.1257 42.6484 12.0343 42.914 12.0398 43.1865C12.0453 43.459 12.1473 43.7205 12.3277 43.9248C12.7117 44.4088 13.0277 44.9459 13.4277 45.4399C13.0647 43.6549 13.5457 41.9348 13.6657 40.0518C13.8312 40.1649 13.9862 40.2931 14.1287 40.4341C14.8552 41.2748 15.3495 42.2904 15.5628 43.3809C15.7761 44.4713 15.7009 45.5984 15.3447 46.6509C15.2373 46.8727 15.2148 47.1261 15.2817 47.3633C15.3486 47.6005 15.5002 47.805 15.7077 47.938C16.3917 48.425 17.0407 48.96 17.7347 49.438C16.95 47.8474 16.5072 46.11 16.4347 44.3379C17.0497 44.5307 17.602 44.8841 18.0347 45.3618C18.5622 45.8648 18.98 46.4719 19.2619 47.144C19.5437 47.8162 19.6836 48.5393 19.6727 49.2681C19.6577 50.4741 19.6727 50.4842 20.8327 50.8892C21.3747 51.0782 21.9327 51.2212 22.4987 51.3892C22.3817 51.8192 22.2087 52.0271 21.7567 51.8691C21.2567 51.6941 20.7407 51.5602 20.2337 51.4072C20.0542 51.3253 19.8504 51.3138 19.663 51.3755C19.4756 51.4372 19.3184 51.5677 19.2227 51.7402C19.0292 52.0233 18.7805 52.2638 18.4914 52.4482C18.2023 52.6326 17.8789 52.7569 17.5407 52.813C17.0734 52.9161 16.5963 52.9687 16.1177 52.9692C15.1558 52.9688 14.2056 52.759 13.3327 52.355ZM22.5537 42.835C22.3928 42.6567 22.2703 42.4473 22.1936 42.2197C22.1168 41.9922 22.0876 41.7515 22.1077 41.5122V41.4512L22.4077 39.751C22.567 38.8596 22.7264 37.9652 22.8857 37.0679C22.9267 36.8379 22.9697 36.6099 23.0137 36.3799C23.1077 35.8799 23.1957 35.4038 23.2647 34.9258C21.7417 33.4748 20.1797 32.0141 18.6647 30.6001L18.5757 30.5171C18.2794 30.3015 18.0584 29.9981 17.944 29.6499C17.8297 29.3017 17.8279 28.9265 17.9387 28.5771C18.0696 28.2518 18.2932 27.9718 18.5817 27.7725C18.8703 27.5732 19.2111 27.4633 19.5617 27.4561L19.6277 27.4482C20.5537 27.3222 21.4957 27.19 22.4047 27.064C23.6127 26.895 24.8617 26.7212 26.0907 26.5562C26.7517 25.2442 27.4347 23.9188 28.0907 22.6348C28.394 22.0441 28.697 21.4535 28.9997 20.8628C29.1258 20.5343 29.3462 20.2504 29.6332 20.0469C29.9202 19.8433 30.261 19.7296 30.6127 19.7192C30.9642 19.729 31.3049 19.8426 31.5918 20.0459C31.8787 20.2492 32.0989 20.5325 32.2247 20.8608L32.2317 20.8711C32.5404 21.4751 32.85 22.0785 33.1607 22.6812C33.8137 23.9502 34.4887 25.2611 35.1427 26.5591C36.3257 26.7201 37.5257 26.8859 38.6877 27.0459C39.679 27.1839 40.6697 27.3213 41.6597 27.458H41.6667C42.0203 27.4631 42.3644 27.5737 42.6549 27.7754C42.9455 27.977 43.1692 28.2603 43.2977 28.5898C43.4039 28.9347 43.401 29.3043 43.2893 29.6475C43.1776 29.9906 42.9626 30.2906 42.6737 30.5068C42.0437 31.0942 41.415 31.6829 40.7877 32.2729C39.8637 33.1409 38.9087 34.0389 37.9617 34.9189C38.3687 37.0699 38.7447 39.1959 39.0807 41.2349C39.1409 41.5703 39.1074 41.9158 38.9839 42.2334C38.8604 42.551 38.6517 42.8286 38.3807 43.0352C38.1109 43.19 37.8037 43.2674 37.4927 43.2598C37.1633 43.262 36.8376 43.1903 36.5397 43.0498C34.8167 42.2078 32.9307 41.2599 30.6117 40.0669C28.6067 41.0989 26.5617 42.1289 24.6517 43.0879C24.3581 43.2409 24.0327 43.3231 23.7017 43.3271C23.487 43.3273 23.2745 43.2838 23.0771 43.1992C22.8798 43.1146 22.7017 42.9905 22.5537 42.835ZM29.8797 23.5542C29.2147 24.8462 28.5287 26.181 27.8647 27.499C27.7361 27.7821 27.5356 28.0266 27.2831 28.208C27.0306 28.3894 26.735 28.5016 26.4257 28.5332C25.1797 28.7002 23.9147 28.8779 22.6907 29.0479C21.9047 29.1559 21.0907 29.2699 20.2907 29.3799C21.7527 30.7469 23.2557 32.1551 24.7247 33.5571C24.9191 33.7379 25.07 33.9605 25.1662 34.208C25.2623 34.4555 25.3011 34.7212 25.2797 34.9858C25.2007 35.5858 25.0897 36.1809 24.9797 36.7539C24.9387 36.9769 24.8957 37.1999 24.8567 37.4229C24.6977 38.3179 24.5387 39.214 24.3787 40.105L24.2067 41.0752C26.0067 40.1752 27.9067 39.2139 29.7667 38.2559C30.0311 38.1126 30.3261 38.0353 30.6267 38.0308C30.9245 38.0346 31.2169 38.1109 31.4787 38.2529C33.6677 39.3799 35.4027 40.2532 37.0367 41.0532C36.7187 39.1532 36.3667 37.1829 35.9897 35.1909C35.9214 34.8841 35.9383 34.5645 36.0386 34.2666C36.1389 33.9687 36.3187 33.704 36.5587 33.501C37.5187 32.61 38.4907 31.696 39.4307 30.814C39.9414 30.3346 40.4524 29.8556 40.9637 29.377L38.4237 29.0249C37.2287 28.8589 35.9947 28.6869 34.7807 28.5249C34.4879 28.4933 34.2083 28.3867 33.9688 28.2153C33.7294 28.044 33.5382 27.8137 33.4137 27.5469C32.7477 26.2289 32.0597 24.8902 31.3937 23.5972L30.6257 22.0972L29.8797 23.5542Z" fill="white"/>
</svg>
