<svg width="62" height="62" viewBox="0 0 62 62" fill="none" xmlns="http://www.w3.org/2000/svg">
<path d="M62.001 0H0.000976562V62H62.001V0Z" fill="#F22735"/>
<path d="M27.0127 56.5657C26.8059 56.4559 26.6372 56.286 26.5288 56.0784C26.4205 55.8708 26.3776 55.6351 26.4058 55.4026C26.4138 53.8026 26.4058 52.2029 26.4058 50.5969V49.9968C23.5179 49.4745 20.7452 48.4446 18.2167 46.9548C15.6573 45.4908 13.4651 43.4629 11.8064 41.0252C10.1477 38.5874 9.06608 35.8036 8.64368 32.8855C8.39268 31.3975 8.35478 29.8725 8.24378 28.3635C8.21462 28.1199 8.27158 27.8738 8.40491 27.6677C8.53825 27.4617 8.73953 27.3088 8.97376 27.2356C9.19366 27.1521 9.43524 27.1454 9.65943 27.2166C9.88362 27.2877 10.0772 27.4327 10.2087 27.6277C10.33 27.8544 10.4173 28.0978 10.4678 28.3499C11.2732 32.0088 13.463 35.2141 16.5787 37.2947C19.0449 38.8155 21.9221 39.5343 24.8137 39.3518C25.3257 39.3368 25.8367 39.3055 26.4027 39.2805V38.6609C26.4027 37.0259 26.4027 35.3887 26.4027 33.7527C26.3731 33.5207 26.4147 33.2852 26.5219 33.0774C26.629 32.8696 26.7966 32.6991 27.0027 32.5886C27.2131 32.4863 27.4493 32.4494 27.6809 32.4822C27.9125 32.515 28.129 32.616 28.3027 32.7727C33.3027 36.3447 38.3058 39.9131 43.3118 43.4778C43.5013 43.5692 43.6613 43.7118 43.7734 43.8899C43.8856 44.068 43.9453 44.2742 43.9458 44.4846C43.9463 44.6951 43.8876 44.9012 43.7764 45.0798C43.6651 45.2585 43.5059 45.4025 43.3168 45.4949C38.3168 49.1249 33.3127 52.7517 28.3047 56.3757C28.074 56.5652 27.7888 56.6758 27.4907 56.6917C27.3236 56.6884 27.1597 56.6452 27.0127 56.5657ZM11.8848 36.4807C13.1632 39.7446 15.4249 42.5304 18.3567 44.4519C21.0543 46.2582 24.12 47.4413 27.3317 47.9158C28.3317 48.0678 28.5867 48.3666 28.5897 49.3806C28.5897 50.1556 28.5897 50.9308 28.5897 51.7068V53.4675L40.9778 44.4929L28.5917 35.6609C28.5917 37.1679 28.5917 38.5275 28.5917 39.8855C28.5917 40.9305 28.2917 41.3018 27.2367 41.3538C25.6944 41.4802 24.146 41.5137 22.5997 41.4539C18.7702 41.2582 15.168 39.5767 12.5587 36.7669C12.2947 36.4879 12.0407 36.1988 11.7827 35.9148C11.768 36.108 11.8027 36.3018 11.8837 36.4778L11.8848 36.4807ZM44.9237 43.7307C44.8135 43.6163 44.7281 43.4803 44.6731 43.3313C44.6181 43.1823 44.5945 43.0236 44.6039 42.865C44.6133 42.7064 44.6554 42.5514 44.7277 42.4099C44.7999 42.2684 44.9007 42.1433 45.0237 42.0427C45.7997 41.1787 46.5557 40.2976 47.3237 39.4255L47.2238 39.2595H44.8387C43.6628 39.2595 42.4887 39.2498 41.3127 39.2678C41.1003 39.2734 40.8939 39.3403 40.7188 39.4607C40.5426 39.6125 40.3222 39.7033 40.0902 39.7195C39.8583 39.7357 39.6273 39.6763 39.4318 39.5505C39.2294 39.4307 39.0737 39.2459 38.99 39.0261C38.9063 38.8064 38.8994 38.5647 38.9707 38.3406C39.2627 37.0686 39.6187 35.8068 39.8347 34.5208C40.1117 32.8628 40.2787 31.1867 40.5017 29.4607H31.8127C31.8127 30.2067 31.8127 30.9607 31.8127 31.7097C31.8127 31.9347 31.8237 32.1586 31.8057 32.3816C31.7952 32.6676 31.6722 32.9378 31.4634 33.1336C31.2545 33.3293 30.9768 33.4346 30.6907 33.4265C30.4131 33.4189 30.1496 33.3023 29.9574 33.1018C29.7652 32.9014 29.6597 32.6334 29.6637 32.3557C29.6437 31.5807 29.6567 30.8046 29.6567 30.0296V29.4475H21.0938C21.1318 30.0595 21.1247 30.6766 21.2167 31.2766C21.5067 33.1446 21.8218 35.0098 22.1498 36.8718C22.2828 37.6238 22.0217 38.1965 21.4097 38.3425C20.7427 38.5015 20.2407 38.1428 20.0497 37.3748C19.4468 34.8987 19.0768 32.3719 18.9447 29.8269C18.9387 29.7099 18.9237 29.5937 18.9067 29.4197H18.3347C16.3587 29.4197 14.3837 29.4197 12.4077 29.4197C12.1494 29.449 11.8888 29.388 11.6702 29.2473C11.4515 29.1066 11.2882 28.895 11.2078 28.6477C11.1564 28.4875 11.1431 28.3174 11.169 28.1511C11.1948 27.9849 11.259 27.8273 11.3566 27.6902C11.4541 27.5531 11.5823 27.4404 11.731 27.3616C11.8796 27.2827 12.0446 27.2395 12.2128 27.2356C12.7378 27.1976 13.2678 27.2229 13.7958 27.2229H18.7658C19.0138 24.5999 19.2557 22.0229 19.5017 19.4109H18.9017C16.7727 19.4109 14.6437 19.4217 12.5137 19.3987C12.3579 19.3773 12.1998 19.4158 12.0711 19.5061C11.9423 19.5964 11.8526 19.7317 11.8197 19.8855C11.1861 21.5412 10.7587 23.2685 10.5468 25.0286C10.5436 25.2974 10.4442 25.5563 10.2666 25.7581C10.089 25.9599 9.84497 26.0914 9.57874 26.1287C9.34756 26.1622 9.1119 26.1149 8.9115 25.9949C8.71111 25.8748 8.55828 25.6891 8.47876 25.4695C8.4001 25.1543 8.38507 24.8267 8.4347 24.5056C8.67483 22.4697 9.20977 20.4798 10.0227 18.5979C13.2797 11.2369 18.8227 6.67772 26.6337 5.10572C31.416 4.19763 36.3643 4.88384 40.7189 7.05934C45.0735 9.23484 48.5939 12.7794 50.7397 17.1487C52.4175 20.4089 53.2747 24.0292 53.2371 27.6956C53.1994 31.3619 52.268 34.9637 50.5237 38.1887C49.4901 40.1876 48.1465 42.0101 46.5427 43.5886C46.4257 43.7194 46.2838 43.8256 46.1254 43.9011C45.9669 43.9767 45.7951 44.02 45.6198 44.0286C45.3573 44.0246 45.1079 43.9177 44.9237 43.7307ZM48.3237 37.0847C48.6467 37.0847 48.7648 36.9176 48.8848 36.6716C49.7514 34.9137 50.3679 33.0432 50.7167 31.1145C50.8167 30.5695 50.8727 30.0146 50.9547 29.4216C48.2077 29.4216 45.5547 29.4218 42.9037 29.4158C42.5787 29.4158 42.5658 29.5956 42.5508 29.8416C42.5068 30.5616 42.4817 31.2868 42.3837 31.9998C42.1527 33.6648 41.8837 35.3247 41.6157 37.0447C41.6903 37.0597 41.7658 37.0692 41.8417 37.0735H44.9247C46.058 37.0762 47.1904 37.0801 48.3237 37.0847ZM42.2847 19.4109C42.1902 19.4138 42.0961 19.4224 42.0027 19.4368C42.2467 22.0368 42.4917 24.6106 42.7357 27.1946H51.0007C51.0167 27.1231 51.0277 27.0508 51.0337 26.9778C50.9902 24.4789 50.4776 22.0106 49.5227 19.7009C49.467 19.6184 49.3927 19.55 49.3059 19.5012C49.2191 19.4524 49.1222 19.4244 49.0227 19.4197C47.7987 19.4097 46.5747 19.4055 45.3507 19.4075L42.2847 19.4109ZM21.0697 27.1878H29.6177V19.4417H21.8257C21.3067 21.9909 21.0537 24.5872 21.0707 27.1887L21.0697 27.1878ZM31.8557 27.1819H40.4397C40.4517 24.5778 40.1933 21.9792 39.6687 19.4285H31.8557V27.1819ZM37.8077 9.02076C39.3884 11.3386 40.5432 13.9197 41.2178 16.6428C41.2264 16.7367 41.2545 16.8277 41.3004 16.9099C41.3464 16.9922 41.4091 17.0638 41.4845 17.1204C41.5599 17.1769 41.6463 17.217 41.7382 17.238C41.83 17.2591 41.9252 17.2609 42.0177 17.2429C43.9067 17.2129 45.7987 17.2307 47.6877 17.2307H48.3617C45.8406 12.8144 41.7774 9.48466 36.9518 7.88063C37.2998 8.33963 37.5637 8.67776 37.8077 9.02076ZM19.5167 17.2395C19.6054 17.2557 19.6964 17.2536 19.7841 17.2327C19.8717 17.2118 19.954 17.1729 20.0258 17.1184C20.0975 17.064 20.1572 16.9951 20.2009 16.9163C20.2447 16.8375 20.2714 16.7506 20.2797 16.6609C21.0362 13.5463 22.4408 10.6259 24.4017 8.09059C24.4247 8.06159 24.4197 8.01073 24.4297 7.95973C20.6357 8.72273 14.3787 13.8598 13.1847 17.2278C14.3437 17.2278 15.4847 17.2278 16.6257 17.2278C17.5907 17.2228 18.5547 17.2265 19.5167 17.2395ZM29.1047 17.2395C29.5687 17.2465 29.6678 17.0956 29.6658 16.6546C29.6478 13.6236 29.6557 10.5947 29.6547 7.56568C29.6547 7.41268 29.6417 7.26553 29.6317 7.03053C29.3377 7.13053 29.0788 7.19745 28.8378 7.30445C27.6708 7.85011 26.6587 8.67904 25.8937 9.71559C24.4633 11.6093 23.387 13.7461 22.7167 16.0227C22.5957 16.3937 22.4917 16.7675 22.3627 17.1985C22.6007 17.2135 22.7628 17.2297 22.9268 17.2297H24.7438H26.2607C27.2097 17.2237 28.1567 17.2256 29.1057 17.2376L29.1047 17.2395ZM31.8467 17.1956H39.1088C39.0816 17.0336 39.0438 16.8736 38.9957 16.7166C38.4787 15.3536 38.0247 13.9599 37.4197 12.6389C36.6524 10.8488 35.4574 9.27401 33.9397 8.05348C33.3336 7.55327 32.6155 7.2073 31.8467 7.04469V17.1956Z" fill="white"/>
</svg>
