<svg width="47" height="17" viewBox="0 0 47 17" fill="none" xmlns="http://www.w3.org/2000/svg">
<path fill-rule="evenodd" clip-rule="evenodd" d="M41.769 10.5839H40.93C40.8964 10.5818 40.8627 10.5849 40.83 10.5929C40.8211 10.5957 40.8134 10.6013 40.808 10.6089C40.793 10.5976 40.7759 10.5894 40.7577 10.585C40.7394 10.5805 40.7205 10.5798 40.702 10.5829H39.727C39.7087 10.5798 39.69 10.5804 39.6719 10.5847C39.6539 10.589 39.6369 10.5969 39.622 10.6079L39.615 10.5979C39.5829 10.5868 39.5488 10.5827 39.515 10.5859C39.393 10.5859 39.272 10.5859 39.15 10.5859C39.067 10.5859 39.059 10.5729 39.088 10.4949C39.164 10.2899 39.234 10.0819 39.311 9.8769C39.3247 9.84756 39.3309 9.81524 39.329 9.7829V9.7759C39.361 9.7589 39.367 9.7229 39.378 9.6929C39.503 9.3479 39.63 9.0029 39.754 8.6569C39.764 8.6299 39.779 8.6029 39.754 8.5739C39.788 8.5739 39.793 8.5399 39.801 8.5169C40.013 7.9319 40.231 7.3499 40.43 6.7599C40.4415 6.73523 40.4463 6.708 40.444 6.6809C40.48 6.6719 40.482 6.6359 40.493 6.6089C40.662 6.1539 40.825 5.6969 40.993 5.2399C40.9994 5.22331 41.0028 5.20569 41.003 5.1879C41.009 5.2049 41.012 5.2239 41.016 5.2419C41.0331 5.35625 41.0609 5.46874 41.099 5.5779V5.5849C41.0895 5.60866 41.0895 5.63514 41.099 5.6589C41.11 5.7229 41.123 5.7869 41.137 5.8509C41.4163 7.19223 41.6966 8.5339 41.978 9.8759C42.029 10.1169 42.069 10.3609 42.135 10.5989C42.139 10.5986 42.143 10.5986 42.147 10.5989C42.1101 10.5815 42.0698 10.5724 42.029 10.5724C41.9882 10.5724 41.9479 10.5815 41.911 10.5989C41.9034 10.5917 41.8946 10.586 41.885 10.5819C41.8505 10.5746 41.8152 10.5719 41.78 10.5739M46.719 15.7009C46.584 15.0589 46.452 14.4169 46.319 13.7749C46.219 13.3129 46.124 12.8519 46.027 12.3909C46.0272 12.3882 46.0272 12.3856 46.027 12.3829L44.784 6.4239C44.4226 4.6979 44.0627 2.97156 43.704 1.2449C43.691 1.1849 43.673 1.1669 43.611 1.1669H40.46C40.4086 1.16131 40.3567 1.16572 40.307 1.1799C40.04 1.19376 39.7814 1.27756 39.557 1.4229C39.531 1.4369 39.504 1.4499 39.48 1.4659C39.1539 1.69305 38.9118 2.0213 38.791 2.3999L38.054 4.1429C38.023 4.2139 37.99 4.2849 37.961 4.3569L37.579 5.2819C37.533 5.3879 37.485 5.4939 37.44 5.6009L36.978 6.7129C36.9519 6.75337 36.932 6.79753 36.919 6.8439L36.377 8.1439C36.352 8.2009 36.326 8.2569 36.303 8.3139L35.915 9.2509C35.832 9.4439 35.748 9.6369 35.667 9.8309L35.167 11.0309C35.132 11.1119 35.094 11.1929 35.061 11.2749L34.581 12.4319C34.374 12.9069 34.175 13.3849 33.981 13.8649C33.9752 13.8706 33.9701 13.8769 33.966 13.8839C33.716 14.4839 33.4663 15.0839 33.217 15.6839C33.1997 15.7105 33.1897 15.7412 33.188 15.7729H36.975C36.9936 15.7718 37.0123 15.7718 37.031 15.7729C37.115 15.7889 37.151 15.7529 37.179 15.6729C37.266 15.4119 37.365 15.1559 37.459 14.8959C37.559 14.6139 37.659 14.3319 37.759 14.0489C37.807 13.9229 37.859 13.7979 37.9 13.6699C37.9023 13.6577 37.9069 13.6462 37.9137 13.6358C37.9205 13.6255 37.9292 13.6165 37.9394 13.6096C37.9496 13.6026 37.9611 13.5977 37.9732 13.5952C37.9853 13.5927 37.9978 13.5926 38.01 13.5949C38.154 13.5949 38.297 13.5949 38.441 13.5949C38.8157 13.6022 39.1903 13.6022 39.565 13.5949C39.9503 13.6022 40.336 13.6022 40.722 13.5949C41.118 13.6022 41.5143 13.6022 41.911 13.5949C42.169 13.5949 42.426 13.6009 42.684 13.5949C42.753 13.5949 42.776 13.6179 42.784 13.6789C42.925 14.3619 43.068 15.0439 43.208 15.7259C43.216 15.7649 43.232 15.7749 43.267 15.7749H43.812H45.812H46.382C46.471 15.7749 46.561 15.7749 46.651 15.7749C46.709 15.7749 46.709 15.7569 46.699 15.7089" fill="#727174"/>
<path fill-rule="evenodd" clip-rule="evenodd" d="M16.441 4.25904C16.518 4.07904 16.596 3.89804 16.672 3.71704C16.795 3.41704 16.917 3.12504 17.039 2.82804C17.0993 2.70512 17.1528 2.57893 17.199 2.45004C17.2444 2.36081 17.2829 2.2682 17.314 2.17304L17.737 1.18304H17.677H13.835C13.813 1.18304 13.786 1.17104 13.769 1.19704L13.635 1.53904C13.55 1.75004 13.464 1.95904 13.381 2.17004C13.263 2.47004 13.147 2.77004 13.031 3.07004C12.906 3.38004 12.78 3.69004 12.657 4.00004C12.546 4.28104 12.437 4.56304 12.328 4.84404C12.115 5.35804 11.913 5.87404 11.714 6.39304C11.668 6.50404 11.621 6.61504 11.577 6.72604L11.159 7.79304L10.573 9.27504C10.548 9.33504 10.522 9.39404 10.498 9.45404L9.986 10.754L9.843 11.098C9.836 11.078 9.83 11.058 9.825 11.038C9.764 10.711 9.704 10.384 9.641 10.058C9.589 9.78504 9.535 9.51204 9.482 9.23904C9.48296 9.22039 9.48296 9.2017 9.482 9.18304L9.259 8.02504C9.07167 7.02971 8.88533 6.03404 8.7 5.03804C8.548 4.23804 8.4 3.42804 8.242 2.62604C8.17097 2.21718 7.95663 1.84699 7.63741 1.58183C7.31818 1.31666 6.91495 1.17387 6.5 1.17904H0.158C0.134 1.17904 0.104 1.16404 0.084 1.19404C0.058 1.31604 0.031 1.43704 0 1.55804C0 1.58604 0 1.60504 0.03 1.61604L0.645 1.75404C0.651484 1.75862 0.658546 1.76232 0.666 1.76504C1.157 1.88704 1.643 2.02604 2.123 2.18804L2.571 2.33904C3.03257 2.50871 3.47997 2.71469 3.909 2.95504C4.0492 3.05087 4.17426 3.16716 4.28 3.30004C4.42905 3.52919 4.5348 3.78374 4.592 4.05104C4.81867 4.91771 5.04467 5.78671 5.27 6.65804L6.823 12.668C7.08567 13.6827 7.34733 14.6977 7.608 15.713C7.60894 15.7233 7.61201 15.7332 7.61699 15.7422C7.62198 15.7512 7.62878 15.759 7.63696 15.7652C7.64515 15.7714 7.65453 15.7759 7.66453 15.7782C7.67452 15.7806 7.6849 15.7809 7.695 15.779C7.928 15.779 8.162 15.779 8.395 15.779H9.576H10.716H11.575C11.601 15.779 11.62 15.779 11.631 15.746C11.678 15.625 11.731 15.506 11.776 15.387C11.843 15.232 11.912 15.076 11.976 14.92C12.11 14.598 12.243 14.276 12.376 13.954C12.384 13.941 12.391 13.927 12.398 13.912L12.963 12.554C12.975 12.529 12.988 12.506 12.998 12.482L13.55 11.154C13.639 10.946 13.73 10.738 13.817 10.528C13.936 10.244 14.053 9.95904 14.17 9.67404C14.249 9.49004 14.329 9.30804 14.406 9.12404C14.535 8.81504 14.662 8.50504 14.789 8.19604C14.8149 8.16 14.8314 8.11807 14.837 8.07404L14.902 7.92704C14.913 7.90604 14.924 7.88504 14.935 7.86304L15.522 6.44904C15.655 6.13604 15.79 5.82404 15.922 5.51004C16.096 5.09604 16.267 4.68104 16.439 4.26604" fill="#727174"/>
<path fill-rule="evenodd" clip-rule="evenodd" d="M23.1329 1.17926H19.7869C19.6619 1.17926 19.5369 1.17926 19.4129 1.17926C19.3909 1.17926 19.3539 1.16226 19.3529 1.20926L19.3039 1.43726C19.3039 1.45326 19.2929 1.46826 19.2899 1.48426C19.1792 1.9996 19.0692 2.51526 18.9599 3.03126C18.9049 3.29226 18.8509 3.55526 18.7969 3.81726C18.7938 3.82188 18.7915 3.82693 18.7899 3.83226C18.6846 4.32626 18.5792 4.82093 18.4739 5.31626C18.4381 5.4537 18.4094 5.59288 18.3879 5.73326C18.3419 5.89526 18.3119 6.06126 18.2789 6.22826L17.9689 7.67826C17.9379 7.81726 17.9049 7.95726 17.8759 8.09826L17.6419 9.21227C17.6351 9.22682 17.6294 9.24186 17.6249 9.25727C17.5336 9.68527 17.4429 10.1136 17.3529 10.5423L17.1329 11.5713C17.0919 11.7583 17.0489 11.9453 17.0089 12.1333L16.7089 13.5423C16.6839 13.6563 16.6579 13.7693 16.6329 13.8823L16.2449 15.7123C16.2379 15.7463 16.2259 15.7743 16.2819 15.7743C16.7179 15.7743 17.1549 15.7743 17.5899 15.7743H18.7629H19.9539C19.9869 15.7743 19.9999 15.7663 20.0059 15.7323C20.0179 15.6693 20.0359 15.6083 20.0519 15.5463C20.1219 15.2273 20.1929 14.9083 20.2629 14.5883C20.3039 14.3983 20.3409 14.2083 20.3799 14.0183C20.385 14.0069 20.3893 13.9952 20.3929 13.9833L20.7019 12.5163L20.8019 12.0763L20.8889 11.6583C20.9049 11.5953 20.9219 11.5333 20.9349 11.4703L21.2139 10.1403C21.2171 10.1312 21.2194 10.1218 21.2209 10.1123C21.3356 9.57893 21.4492 9.0476 21.5619 8.51826C21.6139 8.27326 21.6619 8.02626 21.7129 7.78026C21.7182 7.77071 21.7226 7.76067 21.7259 7.75026C21.8679 7.0916 22.0089 6.43293 22.1489 5.77426C22.2179 5.44927 22.2849 5.12326 22.3489 4.79726C22.3535 4.78762 22.3572 4.77758 22.3599 4.76727C22.5599 3.83393 22.7599 2.9006 22.9599 1.96726C23.0159 1.70826 23.0699 1.44926 23.1259 1.18426" fill="#727174"/>
<path fill-rule="evenodd" clip-rule="evenodd" d="M34.006 1.53606C33.931 1.51506 33.858 1.48406 33.784 1.46006C33.3898 1.32487 32.9873 1.21531 32.579 1.13206C32.55 1.12506 32.526 1.11406 32.5 1.11406C31.9143 0.993419 31.3188 0.926475 30.721 0.914062L30.328 0.920063V0.914063C30.112 0.926063 29.896 0.934062 29.68 0.950062C29.5084 0.95953 29.3376 0.980915 29.169 1.01406C28.8174 1.05465 28.4701 1.12593 28.131 1.22706C27.7583 1.31857 27.396 1.44825 27.05 1.61406C26.728 1.75227 26.4222 1.9253 26.138 2.13006C25.8179 2.34208 25.5274 2.59563 25.274 2.88406C25.1986 2.9573 25.1296 3.03693 25.068 3.12206C24.8544 3.38737 24.6772 3.67994 24.541 3.99206C24.531 4.01106 24.52 4.02906 24.51 4.04906C24.3291 4.46156 24.216 4.90053 24.175 5.34906C24.1117 5.89072 24.1804 6.43964 24.375 6.94906C24.6035 7.49968 24.9551 7.99058 25.403 8.38406C25.7325 8.68751 26.0948 8.95347 26.483 9.17706C26.4977 9.18853 26.5131 9.19921 26.529 9.20906C26.829 9.39306 27.15 9.55706 27.468 9.71606C27.611 9.78706 27.756 9.85706 27.899 9.92706C28.051 10.0141 28.204 10.0991 28.355 10.1871C28.6 10.3262 28.8276 10.4941 29.033 10.6871C29.2382 10.8718 29.3737 11.1214 29.417 11.3941C29.417 11.3941 29.417 11.3941 29.417 11.3991V11.6321C29.417 11.6321 29.417 11.6321 29.417 11.6371C29.3841 11.8868 29.274 12.12 29.102 12.3041C28.9267 12.4691 28.7236 12.6019 28.502 12.6961C28.365 12.7551 28.222 12.7961 28.081 12.8421C27.709 12.9261 27.3282 12.9644 26.947 12.9561L26.485 12.9431C26.0633 12.9165 25.6446 12.8553 25.233 12.7601C25.047 12.7141 24.862 12.6601 24.677 12.6131C24.487 12.5421 24.296 12.4741 24.107 12.4001C23.85 12.3001 23.6 12.1801 23.35 12.0641C23.327 12.0531 23.29 12.0111 23.277 12.0741C23.216 12.3631 23.157 12.6511 23.097 12.9401C23.0913 12.9524 23.0867 12.9651 23.083 12.9781C22.9276 13.7114 22.7713 14.4421 22.614 15.1701C22.6104 15.1784 22.6086 15.1874 22.6089 15.1965C22.6092 15.2056 22.6115 15.2145 22.6156 15.2226C22.6197 15.2307 22.6255 15.2379 22.6327 15.2435C22.6398 15.2491 22.6481 15.253 22.657 15.2551C22.9985 15.4008 23.3509 15.5195 23.711 15.6101C23.8563 15.6542 24.0047 15.6877 24.155 15.7101C24.267 15.7416 24.3809 15.766 24.496 15.7831C24.7803 15.8393 25.0673 15.8806 25.356 15.9071C25.383 15.9211 25.415 15.9071 25.441 15.9211H25.501H25.511C25.5326 15.9293 25.5559 15.9324 25.579 15.9301C25.579 15.9301 25.585 15.9301 25.589 15.9301H25.666C25.699 15.9461 25.735 15.9301 25.766 15.9421H25.842C25.8551 15.9452 25.8688 15.9452 25.882 15.9421C25.9002 15.9472 25.919 15.9499 25.938 15.9501L26.696 15.9861V16.0141H27.022V16.0041L27.055 15.9991C27.1175 16.0047 27.1804 16.0047 27.243 15.9991H27.268H27.306H27.462C27.5076 16.0046 27.554 16.0005 27.598 15.9871H27.604H27.652C27.9844 15.9648 28.3153 15.9234 28.643 15.8631C28.8258 15.8348 29.0065 15.7944 29.184 15.7421C29.5527 15.6631 29.9125 15.5472 30.258 15.3961C30.5051 15.2948 30.7444 15.1755 30.974 15.0391C31.004 15.0441 31.023 15.0211 31.046 15.0081C31.346 14.8288 31.6273 14.6201 31.886 14.3851C31.8931 14.3826 31.8998 14.3793 31.906 14.3751C32.2189 14.0959 32.4885 13.7717 32.706 13.4131C32.717 13.3981 32.729 13.3831 32.738 13.3671C33.2048 12.5809 33.421 11.6712 33.358 10.7591C33.3149 9.94377 32.9765 9.17203 32.406 8.58806C31.808 7.99585 31.1155 7.50749 30.357 7.14306C29.863 6.87006 29.357 6.62306 28.875 6.32506C28.854 6.30906 28.833 6.29206 28.811 6.27706C28.6024 6.14398 28.4175 5.97702 28.264 5.78306C28.1886 5.68828 28.1344 5.57849 28.1049 5.46104C28.0754 5.3436 28.0713 5.2212 28.093 5.10206C28.1237 4.9645 28.1793 4.8337 28.257 4.71606C28.4925 4.42998 28.8107 4.22358 29.168 4.12506C29.4132 4.05916 29.6639 4.01532 29.917 3.99406C29.9394 3.99413 29.9618 3.99246 29.984 3.98906H30.002C30.0244 3.98915 30.0468 3.98748 30.069 3.98406H30.308L30.871 4.00406C30.899 4.01706 30.931 4.00406 30.958 4.01606H31.035C31.062 4.03006 31.094 4.01606 31.121 4.02806C31.2162 4.04972 31.3133 4.06211 31.411 4.06506C31.422 4.06956 31.4334 4.07324 31.445 4.07606C31.7576 4.12598 32.0666 4.19647 32.37 4.28706C32.6992 4.38482 33.0216 4.50442 33.335 4.64506C33.359 4.65606 33.394 4.69306 33.406 4.63206L33.577 3.80606C33.5826 3.79412 33.5873 3.78175 33.591 3.76906C33.6483 3.5024 33.7056 3.23573 33.763 2.96906C33.8563 2.52906 33.9513 2.08973 34.048 1.65106C34.059 1.59906 34.048 1.57306 33.995 1.55806" fill="#727174"/>
</svg>
